<svg width="80" height="80" viewBox="0 0 80 80" fill="none" xmlns="http://www.w3.org/2000/svg">
<g filter="url(#filter0_di_420_486)">
<rect x="2.10864" y="2.10861" width="72.9231" height="72.9231" rx="36.4615" fill="#4144C9" fill-opacity="0.09" shape-rendering="crispEdges"/>
<path d="M38.7017 14.7849C38.7015 14.8153 38.7007 14.8462 38.7007 14.8767C38.7009 27.4648 48.361 37.7946 60.6724 38.862C48.361 39.9294 38.7009 50.2592 38.7007 62.8474C38.7007 62.8779 38.7015 62.9087 38.7017 62.9392H38.6987C38.6988 62.9087 38.7007 62.8779 38.7007 62.8474C38.7005 50.2592 29.0404 39.9294 16.729 38.862C29.0404 37.7947 38.7004 27.4648 38.7007 14.8767C38.7007 14.8459 38.6988 14.8147 38.6987 14.7839L38.7017 14.7849Z" fill="white"/>
</g>
<defs>
<filter id="filter0_di_420_486" x="2.41995e-05" y="-6.31809e-06" width="79.4832" height="79.4832" filterUnits="userSpaceOnUse" color-interpolation-filters="sRGB">
<feFlood flood-opacity="0" result="BackgroundImageFix"/>
<feColorMatrix in="SourceAlpha" type="matrix" values="0 0 0 0 0 0 0 0 0 0 0 0 0 0 0 0 0 0 127 0" result="hardAlpha"/>
<feOffset dx="1.17145" dy="1.17145"/>
<feGaussianBlur stdDeviation="1.64004"/>
<feComposite in2="hardAlpha" operator="out"/>
<feColorMatrix type="matrix" values="0 0 0 0 0 0 0 0 0 0 0 0 0 0 0 0 0 0 0.25 0"/>
<feBlend mode="normal" in2="BackgroundImageFix" result="effect1_dropShadow_420_486"/>
<feBlend mode="normal" in="SourceGraphic" in2="BackgroundImageFix" result="shape"/>
<feColorMatrix in="SourceAlpha" type="matrix" values="0 0 0 0 0 0 0 0 0 0 0 0 0 0 0 0 0 0 127 0" result="hardAlpha"/>
<feOffset dx="2.63577" dy="2.63577"/>
<feGaussianBlur stdDeviation="2.94328"/>
<feComposite in2="hardAlpha" operator="arithmetic" k2="-1" k3="1"/>
<feColorMatrix type="matrix" values="0 0 0 0 1 0 0 0 0 1 0 0 0 0 1 0 0 0 0.78 0"/>
<feBlend mode="normal" in2="shape" result="effect2_innerShadow_420_486"/>
<feBlend mode="normal" in="effect2_innerShadow_420_486" in2="effect1_dropShadow_420_486" result="effect2_innerShadow_420_486"/>
</filter>
</defs>
</svg>
