<svg width="73" height="62" viewBox="0 0 73 62" fill="none" xmlns="http://www.w3.org/2000/svg">
<g filter="url(#filter0_di_420_516)">
<rect x="4.64087" y="14.4486" width="60.8898" height="34.5278" rx="17.2639" fill="black" fill-opacity="0.01"/>
<ellipse cx="35.0046" cy="30.6389" rx="15.9512" ry="17.2639" fill="white"/>
<path d="M65.5286 30.7281C66.1634 32.3302 66.5022 34.0085 66.5022 35.7379C66.5019 46.9025 52.4367 55.9535 35.0862 55.9537C17.7355 55.9537 3.66945 46.9026 3.66919 35.7379C3.66919 34.0087 4.00711 32.3301 4.64185 30.7281C8.10515 39.47 20.4223 45.9351 35.0862 45.9351C49.7497 45.935 62.0651 39.4697 65.5286 30.7281ZM35.0862 5.50348C52.4368 5.50364 66.5022 14.5545 66.5022 25.7193C66.5022 27.4484 66.1633 29.1262 65.5286 30.7281C62.0648 21.9867 49.7494 15.5222 35.0862 15.522C20.4226 15.522 8.10543 21.9864 4.64185 30.7281C4.00725 29.1263 3.6692 27.4483 3.66919 25.7193C3.66919 14.5545 17.7353 5.50348 35.0862 5.50348Z" fill="white"/>
</g>
<defs>
<filter id="filter0_di_420_516" x="-2.10972" y="-2.10972" width="78.0597" height="69.3457" filterUnits="userSpaceOnUse" color-interpolation-filters="sRGB">
<feFlood flood-opacity="0" result="BackgroundImageFix"/>
<feColorMatrix in="SourceAlpha" type="matrix" values="0 0 0 0 0 0 0 0 0 0 0 0 0 0 0 0 0 0 127 0" result="hardAlpha"/>
<feOffset dx="1.83454" dy="1.83454"/>
<feGaussianBlur stdDeviation="1.97213"/>
<feComposite in2="hardAlpha" operator="out"/>
<feColorMatrix type="matrix" values="0 0 0 0 0 0 0 0 0 0 0 0 0 0 0 0 0 0 0.25 0"/>
<feBlend mode="normal" in2="BackgroundImageFix" result="effect1_dropShadow_420_516"/>
<feBlend mode="normal" in="SourceGraphic" in2="effect1_dropShadow_420_516" result="shape"/>
<feColorMatrix in="SourceAlpha" type="matrix" values="0 0 0 0 0 0 0 0 0 0 0 0 0 0 0 0 0 0 127 0" result="hardAlpha"/>
<feOffset dx="4" dy="4"/>
<feGaussianBlur stdDeviation="3.55"/>
<feComposite in2="hardAlpha" operator="arithmetic" k2="-1" k3="1"/>
<feColorMatrix type="matrix" values="0 0 0 0 0 0 0 0 0 0 0 0 0 0 0 0 0 0 0.38 0"/>
<feBlend mode="normal" in2="shape" result="effect2_innerShadow_420_516"/>
</filter>
</defs>
</svg>
