<svg width="67" height="59" viewBox="0 0 67 59" fill="none" xmlns="http://www.w3.org/2000/svg">
<g filter="url(#filter0_f_338_147)">
<path d="M20.4376 24.7243L14.2027 20.0954C13.3042 19.4283 13.776 18.0015 14.895 18.0015H23.6381C23.898 18.0015 24.1504 18.0887 24.3549 18.2491L29.8165 22.5336C30.665 23.1992 30.2272 24.5612 29.1498 24.6077L21.18 24.9521C20.9137 24.9636 20.6516 24.8832 20.4376 24.7243Z" fill="#2763D2"/>
</g>
<g filter="url(#filter1_ii_338_147)">
<path d="M27.1837 57.3L0.827753 26.0555C-1.08325 23.79 0.527164 20.3247 3.49099 20.3247H37.9129C38.9727 20.3247 39.9748 20.807 40.6359 21.6352L63.8556 50.7211C65.6083 52.9167 64.1752 56.1774 61.3724 56.3708L30.0867 58.5294C28.9784 58.6058 27.9 58.1492 27.1837 57.3Z" fill="#D9D9D9" fill-opacity="0.1"/>
</g>
<g filter="url(#filter2_f_338_147)">
<path d="M16.2832 31.7288L14.5657 30.5812C13.6108 29.9431 14.0625 28.4541 15.2109 28.4541H18.0453C18.2852 28.4541 18.5192 28.5284 18.7151 28.6667L20.1974 29.7133C21.1043 30.3536 20.682 31.7794 19.5727 31.8226L16.9736 31.9237C16.7287 31.9332 16.487 31.865 16.2832 31.7288Z" fill="white" fill-opacity="0.33"/>
</g>
<g filter="url(#filter3_f_338_147)">
<path d="M24.4131 41.0203L22.6956 39.8727C21.7407 39.2346 22.1924 37.7456 23.3408 37.7456H26.1752C26.415 37.7456 26.649 37.8199 26.845 37.9582L28.3273 39.0048C29.2342 39.6451 28.8119 41.0709 27.7026 41.1141L25.1035 41.2152C24.8586 41.2247 24.6169 41.1565 24.4131 41.0203Z" fill="white" fill-opacity="0.33"/>
</g>
<g filter="url(#filter4_f_338_147)">
<path d="M19.7676 36.3748L18.0501 35.2272C17.0952 34.5891 17.5468 33.1001 18.6953 33.1001H21.5296C21.7695 33.1001 22.0035 33.1744 22.1995 33.3127L23.6818 34.3593C24.5887 34.9996 24.1664 36.4254 23.0571 36.4686L20.458 36.5697C20.2131 36.5792 19.9714 36.511 19.7676 36.3748Z" fill="white" fill-opacity="0.33"/>
</g>
<g filter="url(#filter5_f_338_147)">
<path d="M27.8973 45.6658L26.1797 44.5182C25.2248 43.8801 25.6765 42.3911 26.825 42.3911H29.6593C29.8992 42.3911 30.1332 42.4654 30.3291 42.6038L31.8114 43.6503C32.7184 44.2906 32.296 45.7165 31.1867 45.7596L28.5876 45.8607C28.3427 45.8702 28.1011 45.802 27.8973 45.6658Z" fill="white" fill-opacity="0.33"/>
</g>
<g filter="url(#filter6_f_338_147)">
<line x1="23.2637" y1="29.9812" x2="41.2783" y2="29.3359" stroke="white" stroke-opacity="0.33" stroke-width="0.580702" stroke-linecap="round"/>
</g>
<g filter="url(#filter7_f_338_147)">
<line x1="25.5991" y1="34.6267" x2="43.6137" y2="33.9814" stroke="white" stroke-opacity="0.33" stroke-width="0.580702" stroke-linecap="round"/>
</g>
<g filter="url(#filter8_f_338_147)">
<line x1="30.2449" y1="39.2727" x2="48.2595" y2="38.6274" stroke="white" stroke-opacity="0.33" stroke-width="0.580702" stroke-linecap="round"/>
</g>
<g filter="url(#filter9_f_338_147)">
<line x1="33.7287" y1="43.9182" x2="51.7434" y2="43.2729" stroke="white" stroke-opacity="0.33" stroke-width="0.580702" stroke-linecap="round"/>
</g>
<g filter="url(#filter10_f_338_147)">
<path d="M21.5989 18.9172L15.3641 14.2882C14.4656 13.6212 14.9374 12.1943 16.0564 12.1943H24.7994C25.0594 12.1943 25.3118 12.2815 25.5163 12.442L30.9779 16.7265C31.8264 17.3921 31.3886 18.754 30.3112 18.8006L22.3414 19.145C22.0751 19.1565 21.8129 19.076 21.5989 18.9172Z" fill="#2763D2"/>
</g>
<g filter="url(#filter11_ii_338_147)">
<path d="M27.4739 51.4923L1.11804 20.2478C-0.79297 17.9824 0.817447 14.5171 3.78128 14.5171H38.2032C39.2629 14.5171 40.265 14.9994 40.9262 15.8275L64.1458 44.9134C65.8986 47.109 64.4655 50.3698 61.6627 50.5632L30.377 52.7218C29.2687 52.7982 28.1903 52.3416 27.4739 51.4923Z" fill="#D9D9D9" fill-opacity="0.2"/>
</g>
<g filter="url(#filter12_f_338_147)">
<path d="M17.4446 25.9217L15.7271 24.774C14.7722 24.136 15.2238 22.647 16.3723 22.647H19.2067C19.4465 22.647 19.6805 22.7213 19.8765 22.8596L21.3588 23.9062C22.2657 24.5465 21.8434 25.9723 20.7341 26.0155L18.135 26.1165C17.8901 26.1261 17.6484 26.0578 17.4446 25.9217Z" fill="white" fill-opacity="0.35"/>
</g>
<g filter="url(#filter13_f_338_147)">
<path d="M25.5747 35.2127L23.8572 34.0651C22.9023 33.427 23.354 31.938 24.5024 31.938H27.3368C27.5767 31.938 27.8107 32.0123 28.0066 32.1506L29.4889 33.1972C30.3958 33.8375 29.9735 35.2633 28.8642 35.3065L26.2651 35.4075C26.0202 35.4171 25.7785 35.3489 25.5747 35.2127Z" fill="white" fill-opacity="0.35"/>
</g>
<g filter="url(#filter14_f_338_147)">
<path d="M20.929 30.5672L19.2115 29.4196C18.2565 28.7815 18.7082 27.2925 19.8567 27.2925H22.691C22.9309 27.2925 23.1649 27.3668 23.3609 27.5051L24.8432 28.5517C25.7501 29.192 25.3278 30.6178 24.2184 30.661L21.6194 30.762C21.3744 30.7716 21.1328 30.7034 20.929 30.5672Z" fill="white" fill-opacity="0.35"/>
</g>
<g filter="url(#filter15_f_338_147)">
<path d="M29.0589 39.8587L27.3413 38.7111C26.3864 38.073 26.8381 36.584 27.9866 36.584H30.8209C31.0608 36.584 31.2948 36.6583 31.4908 36.7966L32.9731 37.8432C33.88 38.4835 33.4577 39.9093 32.3483 39.9525L29.7492 40.0535C29.5043 40.0631 29.2627 39.9949 29.0589 39.8587Z" fill="white" fill-opacity="0.35"/>
</g>
<g filter="url(#filter16_f_338_147)">
<line x1="24.4253" y1="24.1736" x2="42.4399" y2="23.5283" stroke="white" stroke-opacity="0.35" stroke-width="0.580702" stroke-linecap="round"/>
</g>
<g filter="url(#filter17_f_338_147)">
<line x1="26.7605" y1="28.8191" x2="44.7751" y2="28.1738" stroke="white" stroke-opacity="0.35" stroke-width="0.580702" stroke-linecap="round"/>
</g>
<g filter="url(#filter18_f_338_147)">
<line x1="31.4062" y1="33.4651" x2="49.4208" y2="32.8198" stroke="white" stroke-opacity="0.35" stroke-width="0.580702" stroke-linecap="round"/>
</g>
<g filter="url(#filter19_f_338_147)">
<line x1="34.8901" y1="38.1106" x2="52.9047" y2="37.4653" stroke="white" stroke-opacity="0.35" stroke-width="0.580702" stroke-linecap="round"/>
</g>
<g filter="url(#filter20_f_338_147)">
<path d="M21.8892 13.1105L15.6543 8.4816C14.7559 7.81457 15.2277 6.3877 16.3467 6.3877H25.0897C25.3497 6.3877 25.6021 6.47489 25.8066 6.63532L31.2682 10.9199C32.1166 11.5855 31.6789 12.9474 30.6015 12.994L22.6317 13.3383C22.3654 13.3498 22.1032 13.2694 21.8892 13.1105Z" fill="#2763D2"/>
</g>
<g filter="url(#filter21_ii_338_147)">
<path d="M28.6358 45.6852L2.2799 14.4407C0.368896 12.1752 1.97931 8.70996 4.94314 8.70996H39.3651C40.4248 8.70996 41.4269 9.19223 42.0881 10.0204L65.3077 39.1063C67.0605 41.3019 65.6274 44.5626 62.8246 44.756L31.5389 46.9146C30.4305 46.9911 29.3521 46.5344 28.6358 45.6852Z" fill="#D9D9D9" fill-opacity="0.5"/>
</g>
<path d="M17.7349 20.115L16.0174 18.9674C15.0624 18.3293 15.5141 16.8403 16.6626 16.8403H19.4969C19.7368 16.8403 19.9708 16.9146 20.1668 17.053L21.6491 18.0995C22.556 18.7398 22.1337 20.1657 21.0244 20.2088L18.4253 20.3099C18.1804 20.3194 17.9387 20.2512 17.7349 20.115Z" fill="white" fill-opacity="0.33"/>
<path d="M25.865 29.406L24.1475 28.2584C23.1926 27.6204 23.6443 26.1313 24.7927 26.1313H27.6271C27.8669 26.1313 28.101 26.2056 28.2969 26.344L29.7792 27.3905C30.6861 28.0309 30.2638 29.4567 29.1545 29.4998L26.5554 29.6009C26.3105 29.6104 26.0688 29.5422 25.865 29.406Z" fill="white" fill-opacity="0.33"/>
<path d="M21.2193 24.7601L19.5017 23.6124C18.5468 22.9744 18.9985 21.4854 20.147 21.4854H22.9813C23.2212 21.4854 23.4552 21.5596 23.6512 21.698L25.1335 22.7445C26.0404 23.3849 25.6181 24.8107 24.5087 24.8538L21.9096 24.9549C21.6647 24.9644 21.4231 24.8962 21.2193 24.7601Z" fill="white" fill-opacity="0.33"/>
<path d="M29.3492 34.0516L27.6316 32.9039C26.6767 32.2659 27.1284 30.7769 28.2769 30.7769H31.1112C31.3511 30.7769 31.5851 30.8511 31.781 30.9895L33.2633 32.036C34.1703 32.6764 33.748 34.1022 32.6386 34.1453L30.0395 34.2464C29.7946 34.2559 29.553 34.1877 29.3492 34.0516Z" fill="white" fill-opacity="0.33"/>
<line x1="24.7156" y1="18.3669" x2="42.7302" y2="17.7217" stroke="white" stroke-opacity="0.3" stroke-width="0.580702" stroke-linecap="round"/>
<line x1="27.051" y1="23.0124" x2="45.0656" y2="22.3672" stroke="white" stroke-opacity="0.3" stroke-width="0.580702" stroke-linecap="round"/>
<line x1="31.6965" y1="27.6584" x2="49.7111" y2="27.0132" stroke="white" stroke-opacity="0.3" stroke-width="0.580702" stroke-linecap="round"/>
<line x1="35.1804" y1="32.3039" x2="53.195" y2="31.6587" stroke="white" stroke-opacity="0.3" stroke-width="0.580702" stroke-linecap="round"/>
<defs>
<filter id="filter0_f_338_147" x="12.57" y="16.8401" width="18.8543" height="9.27447" filterUnits="userSpaceOnUse" color-interpolation-filters="sRGB">
<feFlood flood-opacity="0" result="BackgroundImageFix"/>
<feBlend mode="normal" in="SourceGraphic" in2="BackgroundImageFix" result="shape"/>
<feGaussianBlur stdDeviation="0.580702" result="effect1_foregroundBlur_338_147"/>
</filter>
<filter id="filter1_ii_338_147" x="0" y="19.1633" width="65.7832" height="40.5357" filterUnits="userSpaceOnUse" color-interpolation-filters="sRGB">
<feFlood flood-opacity="0" result="BackgroundImageFix"/>
<feBlend mode="normal" in="SourceGraphic" in2="BackgroundImageFix" result="shape"/>
<feColorMatrix in="SourceAlpha" type="matrix" values="0 0 0 0 0 0 0 0 0 0 0 0 0 0 0 0 0 0 127 0" result="hardAlpha"/>
<feOffset dx="3.48421" dy="1.1614"/>
<feGaussianBlur stdDeviation="0.580702"/>
<feComposite in2="hardAlpha" operator="arithmetic" k2="-1" k3="1"/>
<feColorMatrix type="matrix" values="0 0 0 0 1 0 0 0 0 1 0 0 0 0 1 0 0 0 0.5 0"/>
<feBlend mode="normal" in2="shape" result="effect1_innerShadow_338_147"/>
<feColorMatrix in="SourceAlpha" type="matrix" values="0 0 0 0 0 0 0 0 0 0 0 0 0 0 0 0 0 0 127 0" result="hardAlpha"/>
<feOffset dx="1.1614" dy="-1.1614"/>
<feGaussianBlur stdDeviation="0.580702"/>
<feComposite in2="hardAlpha" operator="arithmetic" k2="-1" k3="1"/>
<feColorMatrix type="matrix" values="0 0 0 0 1 0 0 0 0 1 0 0 0 0 1 0 0 0 0.5 0"/>
<feBlend mode="normal" in2="effect1_innerShadow_338_147" result="effect2_innerShadow_338_147"/>
</filter>
<filter id="filter2_f_338_147" x="13.4667" y="27.8734" width="7.80496" height="4.63162" filterUnits="userSpaceOnUse" color-interpolation-filters="sRGB">
<feFlood flood-opacity="0" result="BackgroundImageFix"/>
<feBlend mode="normal" in="SourceGraphic" in2="BackgroundImageFix" result="shape"/>
<feGaussianBlur stdDeviation="0.290351" result="effect1_foregroundBlur_338_147"/>
</filter>
<filter id="filter3_f_338_147" x="21.5965" y="37.1649" width="7.80496" height="4.63162" filterUnits="userSpaceOnUse" color-interpolation-filters="sRGB">
<feFlood flood-opacity="0" result="BackgroundImageFix"/>
<feBlend mode="normal" in="SourceGraphic" in2="BackgroundImageFix" result="shape"/>
<feGaussianBlur stdDeviation="0.290351" result="effect1_foregroundBlur_338_147"/>
</filter>
<filter id="filter4_f_338_147" x="16.951" y="32.5194" width="7.80496" height="4.63162" filterUnits="userSpaceOnUse" color-interpolation-filters="sRGB">
<feFlood flood-opacity="0" result="BackgroundImageFix"/>
<feBlend mode="normal" in="SourceGraphic" in2="BackgroundImageFix" result="shape"/>
<feGaussianBlur stdDeviation="0.290351" result="effect1_foregroundBlur_338_147"/>
</filter>
<filter id="filter5_f_338_147" x="25.0807" y="41.8104" width="7.80496" height="4.63162" filterUnits="userSpaceOnUse" color-interpolation-filters="sRGB">
<feFlood flood-opacity="0" result="BackgroundImageFix"/>
<feBlend mode="normal" in="SourceGraphic" in2="BackgroundImageFix" result="shape"/>
<feGaussianBlur stdDeviation="0.290351" result="effect1_foregroundBlur_338_147"/>
</filter>
<filter id="filter6_f_338_147" x="22.3927" y="28.4647" width="19.7566" height="2.38748" filterUnits="userSpaceOnUse" color-interpolation-filters="sRGB">
<feFlood flood-opacity="0" result="BackgroundImageFix"/>
<feBlend mode="normal" in="SourceGraphic" in2="BackgroundImageFix" result="shape"/>
<feGaussianBlur stdDeviation="0.290351" result="effect1_foregroundBlur_338_147"/>
</filter>
<filter id="filter7_f_338_147" x="24.7281" y="33.1102" width="19.7566" height="2.38748" filterUnits="userSpaceOnUse" color-interpolation-filters="sRGB">
<feFlood flood-opacity="0" result="BackgroundImageFix"/>
<feBlend mode="normal" in="SourceGraphic" in2="BackgroundImageFix" result="shape"/>
<feGaussianBlur stdDeviation="0.290351" result="effect1_foregroundBlur_338_147"/>
</filter>
<filter id="filter8_f_338_147" x="29.3739" y="37.7562" width="19.7566" height="2.38748" filterUnits="userSpaceOnUse" color-interpolation-filters="sRGB">
<feFlood flood-opacity="0" result="BackgroundImageFix"/>
<feBlend mode="normal" in="SourceGraphic" in2="BackgroundImageFix" result="shape"/>
<feGaussianBlur stdDeviation="0.290351" result="effect1_foregroundBlur_338_147"/>
</filter>
<filter id="filter9_f_338_147" x="32.8578" y="42.4017" width="19.7566" height="2.38748" filterUnits="userSpaceOnUse" color-interpolation-filters="sRGB">
<feFlood flood-opacity="0" result="BackgroundImageFix"/>
<feBlend mode="normal" in="SourceGraphic" in2="BackgroundImageFix" result="shape"/>
<feGaussianBlur stdDeviation="0.290351" result="effect1_foregroundBlur_338_147"/>
</filter>
<filter id="filter10_f_338_147" x="13.7314" y="11.0329" width="18.8543" height="9.27447" filterUnits="userSpaceOnUse" color-interpolation-filters="sRGB">
<feFlood flood-opacity="0" result="BackgroundImageFix"/>
<feBlend mode="normal" in="SourceGraphic" in2="BackgroundImageFix" result="shape"/>
<feGaussianBlur stdDeviation="0.580702" result="effect1_foregroundBlur_338_147"/>
</filter>
<filter id="filter11_ii_338_147" x="0.290283" y="13.3557" width="65.7832" height="40.5357" filterUnits="userSpaceOnUse" color-interpolation-filters="sRGB">
<feFlood flood-opacity="0" result="BackgroundImageFix"/>
<feBlend mode="normal" in="SourceGraphic" in2="BackgroundImageFix" result="shape"/>
<feColorMatrix in="SourceAlpha" type="matrix" values="0 0 0 0 0 0 0 0 0 0 0 0 0 0 0 0 0 0 127 0" result="hardAlpha"/>
<feOffset dx="3.48421" dy="1.1614"/>
<feGaussianBlur stdDeviation="0.580702"/>
<feComposite in2="hardAlpha" operator="arithmetic" k2="-1" k3="1"/>
<feColorMatrix type="matrix" values="0 0 0 0 1 0 0 0 0 1 0 0 0 0 1 0 0 0 0.5 0"/>
<feBlend mode="normal" in2="shape" result="effect1_innerShadow_338_147"/>
<feColorMatrix in="SourceAlpha" type="matrix" values="0 0 0 0 0 0 0 0 0 0 0 0 0 0 0 0 0 0 127 0" result="hardAlpha"/>
<feOffset dx="1.1614" dy="-1.1614"/>
<feGaussianBlur stdDeviation="0.580702"/>
<feComposite in2="hardAlpha" operator="arithmetic" k2="-1" k3="1"/>
<feColorMatrix type="matrix" values="0 0 0 0 1 0 0 0 0 1 0 0 0 0 1 0 0 0 0.5 0"/>
<feBlend mode="normal" in2="effect1_innerShadow_338_147" result="effect2_innerShadow_338_147"/>
</filter>
<filter id="filter12_f_338_147" x="14.628" y="22.0663" width="7.80496" height="4.63162" filterUnits="userSpaceOnUse" color-interpolation-filters="sRGB">
<feFlood flood-opacity="0" result="BackgroundImageFix"/>
<feBlend mode="normal" in="SourceGraphic" in2="BackgroundImageFix" result="shape"/>
<feGaussianBlur stdDeviation="0.290351" result="effect1_foregroundBlur_338_147"/>
</filter>
<filter id="filter13_f_338_147" x="22.7582" y="31.3573" width="7.80496" height="4.63162" filterUnits="userSpaceOnUse" color-interpolation-filters="sRGB">
<feFlood flood-opacity="0" result="BackgroundImageFix"/>
<feBlend mode="normal" in="SourceGraphic" in2="BackgroundImageFix" result="shape"/>
<feGaussianBlur stdDeviation="0.290351" result="effect1_foregroundBlur_338_147"/>
</filter>
<filter id="filter14_f_338_147" x="18.1124" y="26.7118" width="7.80496" height="4.63162" filterUnits="userSpaceOnUse" color-interpolation-filters="sRGB">
<feFlood flood-opacity="0" result="BackgroundImageFix"/>
<feBlend mode="normal" in="SourceGraphic" in2="BackgroundImageFix" result="shape"/>
<feGaussianBlur stdDeviation="0.290351" result="effect1_foregroundBlur_338_147"/>
</filter>
<filter id="filter15_f_338_147" x="26.2423" y="36.0033" width="7.80496" height="4.63162" filterUnits="userSpaceOnUse" color-interpolation-filters="sRGB">
<feFlood flood-opacity="0" result="BackgroundImageFix"/>
<feBlend mode="normal" in="SourceGraphic" in2="BackgroundImageFix" result="shape"/>
<feGaussianBlur stdDeviation="0.290351" result="effect1_foregroundBlur_338_147"/>
</filter>
<filter id="filter16_f_338_147" x="23.5543" y="22.6571" width="19.7566" height="2.38748" filterUnits="userSpaceOnUse" color-interpolation-filters="sRGB">
<feFlood flood-opacity="0" result="BackgroundImageFix"/>
<feBlend mode="normal" in="SourceGraphic" in2="BackgroundImageFix" result="shape"/>
<feGaussianBlur stdDeviation="0.290351" result="effect1_foregroundBlur_338_147"/>
</filter>
<filter id="filter17_f_338_147" x="25.8895" y="27.3026" width="19.7566" height="2.38748" filterUnits="userSpaceOnUse" color-interpolation-filters="sRGB">
<feFlood flood-opacity="0" result="BackgroundImageFix"/>
<feBlend mode="normal" in="SourceGraphic" in2="BackgroundImageFix" result="shape"/>
<feGaussianBlur stdDeviation="0.290351" result="effect1_foregroundBlur_338_147"/>
</filter>
<filter id="filter18_f_338_147" x="30.5353" y="31.9486" width="19.7566" height="2.38748" filterUnits="userSpaceOnUse" color-interpolation-filters="sRGB">
<feFlood flood-opacity="0" result="BackgroundImageFix"/>
<feBlend mode="normal" in="SourceGraphic" in2="BackgroundImageFix" result="shape"/>
<feGaussianBlur stdDeviation="0.290351" result="effect1_foregroundBlur_338_147"/>
</filter>
<filter id="filter19_f_338_147" x="34.0192" y="36.5941" width="19.7566" height="2.38748" filterUnits="userSpaceOnUse" color-interpolation-filters="sRGB">
<feFlood flood-opacity="0" result="BackgroundImageFix"/>
<feBlend mode="normal" in="SourceGraphic" in2="BackgroundImageFix" result="shape"/>
<feGaussianBlur stdDeviation="0.290351" result="effect1_foregroundBlur_338_147"/>
</filter>
<filter id="filter20_f_338_147" x="8.79538" y="-2.67029e-05" width="29.3069" height="19.7271" filterUnits="userSpaceOnUse" color-interpolation-filters="sRGB">
<feFlood flood-opacity="0" result="BackgroundImageFix"/>
<feBlend mode="normal" in="SourceGraphic" in2="BackgroundImageFix" result="shape"/>
<feGaussianBlur stdDeviation="3.19386" result="effect1_foregroundBlur_338_147"/>
</filter>
<filter id="filter21_ii_338_147" x="1.45215" y="7.54856" width="65.7832" height="40.5357" filterUnits="userSpaceOnUse" color-interpolation-filters="sRGB">
<feFlood flood-opacity="0" result="BackgroundImageFix"/>
<feBlend mode="normal" in="SourceGraphic" in2="BackgroundImageFix" result="shape"/>
<feColorMatrix in="SourceAlpha" type="matrix" values="0 0 0 0 0 0 0 0 0 0 0 0 0 0 0 0 0 0 127 0" result="hardAlpha"/>
<feOffset dx="3.48421" dy="1.1614"/>
<feGaussianBlur stdDeviation="0.580702"/>
<feComposite in2="hardAlpha" operator="arithmetic" k2="-1" k3="1"/>
<feColorMatrix type="matrix" values="0 0 0 0 1 0 0 0 0 1 0 0 0 0 1 0 0 0 0.5 0"/>
<feBlend mode="normal" in2="shape" result="effect1_innerShadow_338_147"/>
<feColorMatrix in="SourceAlpha" type="matrix" values="0 0 0 0 0 0 0 0 0 0 0 0 0 0 0 0 0 0 127 0" result="hardAlpha"/>
<feOffset dx="1.1614" dy="-1.1614"/>
<feGaussianBlur stdDeviation="0.580702"/>
<feComposite in2="hardAlpha" operator="arithmetic" k2="-1" k3="1"/>
<feColorMatrix type="matrix" values="0 0 0 0 1 0 0 0 0 1 0 0 0 0 1 0 0 0 0.5 0"/>
<feBlend mode="normal" in2="effect1_innerShadow_338_147" result="effect2_innerShadow_338_147"/>
</filter>
</defs>
</svg>
